<svg width="18" height="17" viewBox="0 0 18 17" fill="none" xmlns="http://www.w3.org/2000/svg">
<path d="M15.2886 10.8569C14.3651 10.8569 13.4606 10.7127 12.6033 10.4298C12.1849 10.2856 11.7098 10.3967 11.4349 10.6772L9.73532 11.9607C7.78522 10.9199 6.53716 9.67261 5.51051 7.7367L6.75935 6.07734C7.07373 5.76296 7.18642 5.30281 7.05168 4.87183C6.76644 4.00906 6.62148 3.10374 6.62148 2.18188C6.62148 1.53026 6.09122 1 5.4396 1H2.68188C2.03026 1 1.5 1.53026 1.5 2.18188C1.5 9.78449 7.68594 15.9704 15.2886 15.9704C15.9402 15.9704 16.4704 15.4402 16.4704 14.7886V12.0387C16.4704 11.3871 15.9402 10.8569 15.2886 10.8569Z" stroke="white" stroke-width="1.1"/>
</svg>
