<svg width="8" height="13" viewBox="0 0 8 13" fill="none" xmlns="http://www.w3.org/2000/svg">
<path d="M7.62637 5.69507C7.51036 5.69507 7.41621 5.78901 7.41621 5.90523V7.16621C7.41621 8.78866 6.09639 10.1085 4.47393 10.1085C2.85147 10.1085 1.53165 8.78866 1.53165 7.16621V5.90523C1.53165 5.78901 1.4375 5.69507 1.32149 5.69507C1.20548 5.69507 1.11133 5.78901 1.11133 5.90523V7.16621C1.11133 8.94944 2.50765 10.4088 4.26377 10.5181V11.5796H3.21295C3.09694 11.5796 3.00279 11.6736 3.00279 11.7898C3.00279 11.906 3.09694 11.9999 3.21295 11.9999H5.73491C5.85091 11.9999 5.94507 11.906 5.94507 11.7898C5.94507 11.6736 5.85091 11.5796 5.73491 11.5796H4.68409V10.5181C6.44021 10.4088 7.83653 8.94923 7.83653 7.16621V5.90523C7.83653 5.78901 7.74238 5.69507 7.62637 5.69507Z" fill="#7B7B7B" stroke="#7B7B7B" stroke-width="0.3"/>
<path d="M4.4324 8.71342C5.4494 8.71342 6.27692 7.8859 6.27692 6.8689V2.84451C6.27692 1.82752 5.4494 1 4.4324 1C3.41541 1 2.58789 1.82752 2.58789 2.84451V6.8689C2.58789 7.8859 3.41541 8.71342 4.4324 8.71342Z" stroke="#7B7B7B" stroke-width="0.8"/>
</svg>
