<svg width="13" height="16" viewBox="0 0 13 16" fill="none" xmlns="http://www.w3.org/2000/svg">
<path d="M9.91574 6.7959C9.77253 6.7959 9.6563 6.91187 9.6563 7.05534V8.61199C9.6563 10.6149 8.027 12.2442 6.02411 12.2442C4.02122 12.2442 2.39193 10.6149 2.39193 8.61199V7.05534C2.39193 6.91187 2.2757 6.7959 2.13249 6.7959C1.98928 6.7959 1.87305 6.91187 1.87305 7.05534V8.61199C1.87305 10.8134 3.59678 12.6149 5.76467 12.7498V14.0603H4.46746C4.32425 14.0603 4.20802 14.1762 4.20802 14.3197C4.20802 14.4632 4.32425 14.5791 4.46746 14.5791H7.58076C7.72397 14.5791 7.8402 14.4632 7.8402 14.3197C7.8402 14.1762 7.72397 14.0603 7.58076 14.0603H6.28355V12.7498C8.45145 12.6149 10.1752 10.8131 10.1752 8.61199V7.05534C10.1752 6.91187 10.0589 6.7959 9.91574 6.7959Z" fill="black" stroke="black" stroke-width="0.3"/>
<path d="M5.97037 10.5221C7.22584 10.5221 8.24739 9.50051 8.24739 8.24505V3.27701C8.24739 2.02155 7.22584 1 5.97037 1C4.71491 1 3.69336 2.02155 3.69336 3.27701V8.24505C3.69336 9.50051 4.71491 10.5221 5.97037 10.5221Z" stroke="black"/>
<path d="M0.5 1L11.9244 14.5793" stroke="black" stroke-linecap="round"/>
</svg>
