<svg width="10" height="16" viewBox="0 0 10 16" fill="none" xmlns="http://www.w3.org/2000/svg">
<path d="M8.9032 6.97559C8.75555 6.97559 8.63572 7.09515 8.63572 7.24307V8.84794C8.63572 10.9129 6.95595 12.5927 4.891 12.5927C2.82606 12.5927 1.14629 10.9129 1.14629 8.84794V7.24307C1.14629 7.09515 1.02646 6.97559 0.878808 6.97559C0.731159 6.97559 0.611328 7.09515 0.611328 7.24307V8.84794C0.611328 11.1175 2.38846 12.9749 4.62352 13.114V14.465H3.28612C3.13848 14.465 3.01865 14.5846 3.01865 14.7325C3.01865 14.8804 3.13848 15 3.28612 15H6.49588C6.64353 15 6.76336 14.8804 6.76336 14.7325C6.76336 14.5846 6.64353 14.465 6.49588 14.465H5.15848V13.114C7.39354 12.9749 9.17068 11.1172 9.17068 8.84794V7.24307C9.17068 7.09515 9.05085 6.97559 8.9032 6.97559Z" fill="white" stroke="white" stroke-width="0.3"/>
<path d="M4.8378 10.8171C6.13216 10.8171 7.18536 9.76387 7.18536 8.46951V3.34756C7.18536 2.0532 6.13216 1 4.8378 1C3.54344 1 2.49023 2.0532 2.49023 3.34756V8.46951C2.49023 9.76387 3.54344 10.8171 4.8378 10.8171Z" stroke="white" stroke-width="1.1"/>
</svg>
