<svg width="11" height="13" viewBox="0 0 11 13" fill="none" xmlns="http://www.w3.org/2000/svg">
<path d="M8.12637 5.69507C8.01036 5.69507 7.91621 5.78901 7.91621 5.90523V7.16621C7.91621 8.78866 6.59639 10.1085 4.97393 10.1085C3.35147 10.1085 2.03165 8.78866 2.03165 7.16621V5.90523C2.03165 5.78901 1.9375 5.69507 1.82149 5.69507C1.70548 5.69507 1.61133 5.78901 1.61133 5.90523V7.16621C1.61133 8.94944 3.00765 10.4088 4.76377 10.5181V11.5796H3.71295C3.59694 11.5796 3.50279 11.6736 3.50279 11.7898C3.50279 11.906 3.59694 11.9999 3.71295 11.9999H6.23491C6.35091 11.9999 6.44507 11.906 6.44507 11.7898C6.44507 11.6736 6.35091 11.5796 6.23491 11.5796H5.18409V10.5181C6.94021 10.4088 8.33653 8.94923 8.33653 7.16621V5.90523C8.33653 5.78901 8.24238 5.69507 8.12637 5.69507Z" fill="#D62F12" stroke="#D62F12" stroke-width="0.3"/>
<path d="M4.9324 8.71342C5.9494 8.71342 6.77692 7.8859 6.77692 6.8689V2.84451C6.77692 1.82752 5.9494 1 4.9324 1C3.91541 1 3.08789 1.82752 3.08789 2.84451V6.8689C3.08789 7.8859 3.91541 8.71342 4.9324 8.71342Z" stroke="#D62F12" stroke-width="0.8"/>
<path d="M0.5 1L9.75439 12" stroke="#D62F12" stroke-width="0.8" stroke-linecap="round"/>
</svg>
