<svg width="17" height="11" viewBox="0 0 17 11" fill="none" xmlns="http://www.w3.org/2000/svg">
<path d="M13.0312 7.5957L15.4993 5.43613L13.0312 3.27655" stroke="black" stroke-width="1.5" stroke-linecap="round" stroke-linejoin="round"/>
<path fill-rule="evenodd" clip-rule="evenodd" d="M4.32223 5.70538C3.62403 5.94631 2.9841 6.34431 2.44646 6.88193C1.51416 7.81427 1.00071 9.05384 1.00071 10.3723H1.77198C1.77198 8.07581 3.64034 6.20745 5.93688 6.20745C8.23341 6.20745 10.1018 8.07581 10.1018 10.3723H10.873C10.873 9.05384 10.3596 7.81427 9.42727 6.88193C8.88963 6.34431 8.2497 5.94631 7.55151 5.70538C8.29932 5.19034 8.7906 4.32839 8.7906 3.35372C8.7906 1.78018 7.51042 0.5 5.93688 0.5C4.36334 0.5 3.08315 1.78018 3.08315 3.35372C3.08315 4.32839 3.57444 5.19034 4.32223 5.70538ZM8.01932 3.35372C8.01932 4.502 7.08513 5.43617 5.93688 5.43617C4.78862 5.43617 3.85443 4.502 3.85443 3.35372C3.85443 2.20545 4.78862 1.27128 5.93688 1.27128C7.08513 1.27128 8.01932 2.20545 8.01932 3.35372Z" fill="black"/>
<path d="M2.44646 6.88193L2.3404 6.77586L2.3404 6.77586L2.44646 6.88193ZM4.32223 5.70538L4.40731 5.58185L4.6519 5.75031L4.37116 5.84718L4.32223 5.70538ZM1.00071 10.3723V10.5223H0.850707V10.3723H1.00071ZM1.77198 10.3723H1.92198V10.5223H1.77198V10.3723ZM10.1018 10.3723V10.5223H9.95177V10.3723H10.1018ZM10.873 10.3723H11.023V10.5223H10.873V10.3723ZM9.42727 6.88193L9.53333 6.77586L9.53334 6.77586L9.42727 6.88193ZM7.55151 5.70538L7.50258 5.84718L7.22184 5.7503L7.46642 5.58185L7.55151 5.70538ZM2.3404 6.77586C2.89407 6.22221 3.55351 5.81197 4.2733 5.56359L4.37116 5.84718C3.69455 6.08066 3.07414 6.46641 2.55253 6.988L2.3404 6.77586ZM0.850707 10.3723C0.850707 9.01406 1.37997 7.73633 2.3404 6.77586L2.55253 6.98799C1.64836 7.8922 1.15071 9.09363 1.15071 10.3723H0.850707ZM1.77198 10.5223H1.00071V10.2223H1.77198V10.5223ZM5.93688 6.35745C3.72319 6.35745 1.92198 8.15865 1.92198 10.3723H1.62198C1.62198 7.99296 3.5575 6.05745 5.93688 6.05745V6.35745ZM9.95177 10.3723C9.95177 8.15865 8.15057 6.35745 5.93688 6.35745V6.05745C8.31625 6.05745 10.2518 7.99296 10.2518 10.3723H9.95177ZM10.873 10.5223H10.1018V10.2223H10.873V10.5223ZM9.53334 6.77586C10.4938 7.73633 11.023 9.01406 11.023 10.3723H10.723C10.723 9.09363 10.2254 7.8922 9.3212 6.98799L9.53334 6.77586ZM7.60044 5.56359C8.32022 5.81197 8.97967 6.22221 9.53333 6.77586L9.32121 6.988C8.7996 6.46641 8.17919 6.08066 7.50258 5.84718L7.60044 5.56359ZM8.9406 3.35372C8.9406 4.38 8.42315 5.28719 7.63659 5.82892L7.46642 5.58185C8.17549 5.0935 8.6406 4.27678 8.6406 3.35372H8.9406ZM5.93688 0.35C7.59326 0.35 8.9406 1.69734 8.9406 3.35372H8.6406C8.6406 1.86303 7.42757 0.65 5.93688 0.65V0.35ZM2.93315 3.35372C2.93315 1.69734 4.28049 0.35 5.93688 0.35V0.65C4.44618 0.65 3.23315 1.86303 3.23315 3.35372H2.93315ZM4.23714 5.82892C3.45061 5.28719 2.93315 4.37999 2.93315 3.35372H3.23315C3.23315 4.27678 3.69827 5.0935 4.40731 5.58185L4.23714 5.82892ZM5.93688 5.28617C7.00229 5.28617 7.86932 4.41916 7.86932 3.35372H8.16932C8.16932 4.58484 7.16798 5.58617 5.93688 5.58617V5.28617ZM4.00443 3.35372C4.00443 4.41916 4.87146 5.28617 5.93688 5.28617V5.58617C4.70578 5.58617 3.70443 4.58484 3.70443 3.35372H4.00443ZM5.93688 1.42128C4.87146 1.42128 4.00443 2.28829 4.00443 3.35372H3.70443C3.70443 2.1226 4.70578 1.12128 5.93688 1.12128V1.42128ZM7.86932 3.35372C7.86932 2.28829 7.00229 1.42128 5.93688 1.42128V1.12128C7.16798 1.12128 8.16932 2.1226 8.16932 3.35372H7.86932Z" fill="black"/>
</svg>
