<?xml version="1.0" encoding="UTF-8"?>
<svg width="130px" height="31px" viewBox="0 0 130 31" version="1.1" xmlns="http://www.w3.org/2000/svg" xmlns:xlink="http://www.w3.org/1999/xlink">
    <title>Group 6</title>
    <g id="Register,-Login,-Forgor-pass" stroke="none" stroke-width="1" fill="none" fill-rule="evenodd">
        <g id="Trainer-registration-choise01" transform="translate(-40.000000, -25.000000)">
            <g id="Group-6" transform="translate(40.000000, 25.000000)">
                <path d="M22.5069948,30.5483029 C23.9381448,30.5483029 25.1600229,30.2916228 26.1726291,29.7782627 C27.1852353,29.2649026 28.0290737,28.481353 28.7041445,27.4276139 L28.7041445,27.4276139 L29.1901955,30.1430186 L32.7545692,30.1430186 L32.7545692,11.54047 L28.4206148,11.54047 L28.4206148,22.0778613 C28.4206148,22.9694868 28.1978414,23.7868101 27.7522947,24.5298313 C27.306748,25.2728524 26.7329378,25.8605147 26.0308642,26.2928179 C25.3287906,26.7251211 24.5997142,26.9412727 23.8436349,26.9412727 C22.7905245,26.9412727 22.0006917,26.7386306 21.4741365,26.3333463 C20.9475813,25.928062 20.5965445,25.2998714 20.4210261,24.4487744 C20.2455077,23.5976774 20.1577485,22.4020888 20.1577485,20.8620085 L20.1577485,20.8620085 L20.1577485,11.54047 L15.7832898,11.54047 L15.7832898,21.9562761 C15.7832898,24.6581713 16.2625901,26.7656496 17.2211906,28.2787109 C18.1797911,29.7917722 19.9417258,30.5483029 22.5069948,30.5483029 Z" id="Path" fill="#000000" fill-rule="nonzero"></path>
                <path d="M44.5014466,29.8694517 L44.5014466,14.8334048 L48.8772846,14.8334048 L48.8772846,11.2669031 L44.5014466,11.2669031 L44.5014466,9.71087759 C44.5014466,7.50173859 42.7105856,5.71087759 40.5014466,5.71087759 L40.0017642,5.71087759 L40.0017642,5.71087759 L40.0017642,11.2669031 L36.6579634,11.2669031 L36.6579634,14.8334048 L40.0017642,14.8334048 L40.0017642,29.8694517 L44.5014466,29.8694517 Z" id="Path" fill="#000000" fill-rule="nonzero"></path>
                <path d="M61.1170701,10.8616188 C63.0816456,10.8616188 64.8074707,11.2981911 66.2945452,12.1713358 C67.7816197,13.0444805 68.9276221,14.2314116 69.7325524,15.732129 C70.5374827,17.2328464 70.9399478,18.8836356 70.9399478,20.6844965 C70.9399478,22.5126432 70.5306612,24.1770752 69.7120881,25.6777927 C68.8935149,27.1785101 67.7406911,28.3654412 66.2536165,29.2385858 C64.766542,30.1117305 63.0543598,30.5483029 61.1170701,30.5483029 C59.1797803,30.5483029 57.4607767,30.1117305 55.9600593,29.2385858 C54.4593418,28.3654412 53.2996966,27.1785101 52.4811234,25.6777927 C51.6625503,24.1770752 51.2532637,22.5126432 51.2532637,20.6844965 C51.2532637,18.8836356 51.6557288,17.2328464 52.4606591,15.732129 C53.2655893,14.2314116 54.4184132,13.0444805 55.9191306,12.1713358 C57.419848,11.2981911 59.1524945,10.8616188 61.1170701,10.8616188 Z M60.9942841,14.4633406 C59.4389951,14.4633406 58.1906711,15.0636276 57.249312,16.2642015 C56.3079529,17.4647755 55.8372733,18.9654929 55.8372733,20.7663538 C55.8372733,22.5126432 56.3420601,23.9792534 57.3516336,25.1661845 C58.3612072,26.3531155 59.6572813,26.946581 61.239856,26.946581 C62.8224308,26.946581 64.0707548,26.359937 64.9848282,25.1866488 C65.8989015,24.0133606 66.3559382,22.539929 66.3559382,20.7663538 C66.3559382,18.9927787 65.8647943,17.4988827 64.8825065,16.2846659 C63.9002188,15.070449 62.6041446,14.4633406 60.9942841,14.4633406 Z" id="Combined-Shape" fill="#000000"></path>
                <path d="M80.0498457,30.2088773 L80.0498457,20.5147096 C80.0498457,18.7073223 80.5676873,17.3928589 81.6033705,16.5713193 C82.6390537,15.7497796 83.7890656,15.3390098 85.0534061,15.3390098 C85.860432,15.3390098 86.3849988,15.4211638 86.6271066,15.5854717 L86.6271066,15.5854717 L87.232376,11.1080807 C86.9095656,10.9437728 86.3177467,10.8616188 85.4569191,10.8616188 C84.2194794,10.8616188 83.116544,11.245004 82.148113,12.0117743 C81.1796819,12.7785446 80.4802595,13.7917768 80.0498457,15.051471 L80.0498457,15.051471 L80.0498457,11.3545426 L75.691906,11.3545426 L75.691906,30.2088773 L80.0498457,30.2088773 Z" id="Path" fill="#000000" fill-rule="nonzero"></path>
                <path d="M98.1902906,10.8616188 C99.2830088,10.8616188 100.307432,11.0526192 101.26356,11.43462 C102.219689,11.8166208 103.025569,12.2873004 103.681199,12.8466587 C104.33683,13.406017 104.773918,13.9585539 104.992461,14.5042693 L104.992461,14.5042693 L105.074415,11.3527627 L109.295039,11.3527627 L109.295039,30.1390163 L105.115392,30.1390163 L105.033438,26.8237951 L104.919479,27.0484183 C104.436484,27.9386772 103.627614,28.730126 102.492868,29.4227648 C101.26356,30.1731235 99.8840038,30.5483029 98.3541983,30.5483029 C96.6604851,30.5483029 95.0965322,30.1458377 93.6623396,29.3409075 C92.2281469,28.5359772 91.0807929,27.3899748 90.2202773,25.9029003 C89.3597617,24.4158257 88.9295039,22.6763578 88.9295039,20.6844965 C88.9295039,18.719921 89.3051258,17.0009174 90.0563695,15.5274857 C90.8076133,14.0540541 91.879843,12.9080517 93.2730587,12.0894785 C94.6662744,11.2709054 96.3053517,10.8616188 98.1902906,10.8616188 Z M99.0917831,14.6270553 C97.343434,14.6270553 95.9911952,15.193235 95.0350668,16.3255945 C94.0789384,17.457954 93.6008742,18.9245643 93.6008742,20.7254252 C93.6008742,22.5535718 94.0721089,24.0338249 95.0145783,25.1661845 C95.9570478,26.298544 97.316116,26.8647237 99.0917831,26.8647237 C100.648906,26.8647237 101.960168,26.3258297 103.025569,25.2480418 C104.090969,24.1702538 104.623669,22.7582151 104.623669,21.0119258 L104.623669,21.0119258 L104.623669,20.7254252 L104.616293,20.3771223 C104.572038,19.3432644 104.328635,18.4088632 103.886084,17.5739186 C103.394361,16.6462023 102.725071,15.9231294 101.878214,15.4046997 C101.031358,14.8862701 100.102547,14.6270553 99.0917831,14.6270553 Z" id="Combined-Shape" fill="#000000" fill-rule="nonzero"></path>
                <path d="M123.905135,30.5483029 C125.214099,30.5483029 126.407166,30.3641239 127.484334,29.995766 C128.561503,29.6274081 129.400058,29.2113001 130,28.747442 L130,28.747442 L128.4047,25.636864 C127.968378,25.9642933 127.347984,26.2507939 126.543516,26.4963658 C125.739048,26.7419378 124.914128,26.8647237 124.068755,26.8647237 C122.37801,26.8647237 121.062228,26.3053654 120.12141,25.1866488 C119.180592,24.0679322 118.710183,22.4990003 118.710183,20.4798532 C118.710183,18.7062781 119.166957,17.287418 120.080505,16.2232729 C120.994053,15.1591278 122.32347,14.6270553 124.068755,14.6270553 C125.51407,14.6270553 126.809399,15.2000565 127.954743,16.3460589 L127.954743,16.3460589 L129.91819,12.7852657 C129.318248,12.2395503 128.493328,11.7825136 127.443429,11.4141557 C126.393531,11.0457978 125.145924,10.8616188 123.700609,10.8616188 C121.791703,10.8616188 120.107775,11.2572625 118.648825,12.0485499 C117.189875,12.8398372 116.058167,13.9653753 115.253699,15.4251641 C114.449231,16.8849528 114.046997,18.5834921 114.046997,20.5207819 C114.046997,22.5672147 114.483319,24.3476113 115.355962,25.8619716 C116.228605,27.3763319 117.408036,28.5359772 118.894256,29.3409075 C120.380476,30.1458377 122.050769,30.5483029 123.905135,30.5483029 Z" id="Path" fill="#000000" fill-rule="nonzero"></path>
                <g id="Group">
                    <path d="M7.84348317,29.8694517 L7.84348317,14.8334048 L12.2193211,14.8334048 L12.2193211,11.2669031 L7.84348317,11.2669031 L7.84348317,5.71087759 L7.34380072,5.71087759 C5.13466172,5.71087759 3.34380072,7.50173859 3.34380072,9.71087759 L3.34380072,11.2669031 L3.34380072,11.2669031 L0,11.2669031 L0,14.8334048 L3.34380072,14.8334048 L3.34380072,29.8694517 L7.84348317,29.8694517 Z" id="Path-Copy" fill="#000000" fill-rule="nonzero"></path>
                    <rect id="Rectangle-Copy-3" fill="#01B22E" x="3.39425587" y="0" width="4.41253264" height="4.41253264" rx="2.20626632"></rect>
                </g>
            </g>
        </g>
    </g>
</svg>